<svg xmlns="http://www.w3.org/2000/svg" viewBox="0 0 27.28 21.5"><defs><style>.cls-1{fill:#fff;}</style></defs><title>Ico-Desarrollo</title><g id="Capa_2" data-name="Capa 2"><g id="Capa_1-2" data-name="Capa 1"><path class="cls-1" d="M23.34,21.5H1.6A1.9,1.9,0,0,1,0,19.58c0-1.13,0-8.6,0-8.67V6.56C0,4.92,1,4.8,1.35,4.8a2.08,2.08,0,0,1,1.11.37L8.6,9.12V6.22a.89.89,0,0,1,.88-1,1.74,1.74,0,0,1,.91.35l1.67,1.12,3.76,2.43V6.26a.89.89,0,0,1,.88-1,1.65,1.65,0,0,1,.9.35L24,9.9a2.37,2.37,0,0,1,1.08,1.94v7.89A1.83,1.83,0,0,1,24.66,21,1.72,1.72,0,0,1,23.34,21.5ZM1.77,20.29H23.34a.58.58,0,0,0,.42-.13.58.58,0,0,0,.12-.38V11.84a1.14,1.14,0,0,0-.51-.91h0L17,6.69v3.55a.64.64,0,0,1-.32.54.62.62,0,0,1-.62,0l-4.71-3-1.57-1v.51a.17.17,0,0,1,0,.07v3a.62.62,0,0,1-.32.54.63.63,0,0,1-.62,0L1.79,6.18A1,1,0,0,0,1.35,6h0a1.07,1.07,0,0,0-.09.54v4.35c0,.08,0,7.54,0,8.67A.69.69,0,0,0,1.77,20.29Z"/><path class="cls-1" d="M21.6,7.52a.61.61,0,0,1-.34-.1L18.49,5.6a.61.61,0,0,1-.28-.51V2a2,2,0,0,1,4,0V6.91a.61.61,0,0,1-.32.54A.59.59,0,0,1,21.6,7.52ZM19.43,4.76l1.56,1V2a.78.78,0,1,0-1.56,0Z"/><path class="cls-1" d="M24.72,9.59a.54.54,0,0,1-.28-.08l-1.67-1.2a.47.47,0,0,1-.19-.38V6.59a1.3,1.3,0,0,1,2.6.06v0h0V9.13a.47.47,0,0,1-.25.41A.41.41,0,0,1,24.72,9.59Zm-1.21-1.9.74.53V6.71h0a.38.38,0,0,0-.37-.37.37.37,0,0,0-.37.35v1Z"/><path class="cls-1" d="M26.87,17.5H22.15a.42.42,0,0,1-.36-.21.43.43,0,0,1,0-.41l2.36-4.09a.42.42,0,0,1,.72,0l2.34,4.06a.42.42,0,0,1-.34.65Zm-4-.83h3.28l-1.64-2.84Z"/><path class="cls-1" d="M22.87,16.67h3.28l-1.64-2.84Z"/></g></g></svg>